<?xml version="1.0" standalone="no"?><svg xmlns="http://www.w3.org/2000/svg" viewBox="0 0 1440 320"><path fill="#0099ff" fill-opacity="1" d="M0,64L24,58.7C48,53,96,43,144,69.3C192,96,240,160,288,202.7C336,245,384,267,432,277.3C480,288,528,288,576,266.7C624,245,672,203,720,197.3C768,192,816,224,864,240C912,256,960,256,1008,234.7C1056,213,1104,171,1152,160C1200,149,1248,171,1296,176C1344,181,1392,171,1416,165.3L1440,160L1440,320L1416,320C1392,320,1344,320,1296,320C1248,320,1200,320,1152,320C1104,320,1056,320,1008,320C960,320,912,320,864,320C816,320,768,320,720,320C672,320,624,320,576,320C528,320,480,320,432,320C384,320,336,320,288,320C240,320,192,320,144,320C96,320,48,320,24,320L0,320Z"></path></svg>