<svg width="137" height="93" viewBox="0 0 137 93" fill="none" xmlns="http://www.w3.org/2000/svg">
<g clip-path="url(#clip0_24_128)">
<path d="M55.48 61.21C53.35 72.84 50.53 81.31 47 86.56C44.2667 90.6267 41.2667 92.66 38 92.66C36.8904 92.6047 35.8013 92.3401 34.79 91.88V89.07C35.5124 89.1684 36.2409 89.2152 36.97 89.21C38.3257 89.301 39.6645 88.8678 40.71 88C41.22 87.5788 41.6333 87.0526 41.9215 86.4572C42.2096 85.8618 42.3661 85.2113 42.38 84.55C42.1596 82.7216 41.7232 80.9257 41.08 79.2L35.31 61.21H40.47L44.61 74.63C45.54 77.63 45.92 79.8 45.77 81.01C48.1096 74.6187 49.7002 67.9777 50.51 61.22H55.51M32.71 84.41H27.46C27.28 75.53 26.77 67.1767 25.93 59.35L17.93 84.41H13.93L6 59.35C5.33333 66.8567 4.93 75.21 4.79 84.41H0C0.313333 73.23 1.08667 62.76 2.32 53H8.83L16.4 76.1H16.45L24.07 53H30.3C31.6333 64.46 32.4367 74.94 32.71 84.44" fill="#F8CF95"/>
<path d="M125.38 84.41H110.46V53H115.46V80.54H125.36V84.41M87.87 78.12C86.59 76.07 86 72.78 86 68.24C86 60.32 88.4 56.36 93.2 56.36C94.2933 56.2832 95.3866 56.5073 96.3615 57.0079C97.3364 57.5086 98.1555 58.2667 98.73 59.2C100.003 61.2466 100.64 64.51 100.64 68.99C100.64 76.99 98.2367 80.99 93.43 80.99C92.3384 81.0649 91.2471 80.8399 90.2742 80.3393C89.3013 79.8388 88.4837 79.0817 87.91 78.15M106.59 85.15L100.82 82.3C101.341 81.874 101.823 81.4021 102.26 80.89C104.713 78.01 105.937 73.74 105.93 68.08C105.93 57.68 101.857 52.4766 93.71 52.47C89.71 52.47 86.5967 53.8033 84.37 56.47C81.9234 59.3633 80.7 63.62 80.7 69.24C80.7 74.86 81.7834 78.9133 83.95 81.4C85.95 83.73 88.95 84.89 92.95 84.89C94.3361 84.906 95.7172 84.7208 97.05 84.34L104.56 88.72L106.61 85.19M78.48 75.69C78.5122 76.9342 78.2658 78.1699 77.7588 79.3067C77.2519 80.4434 76.4972 81.4525 75.55 82.26C73.341 84.0565 70.5435 84.9688 67.7 84.82C64.4975 84.7754 61.3852 83.7531 58.78 81.89L60.12 79.19C62.1933 80.3212 64.5 80.9578 66.86 81.05C68.4399 81.144 70.005 80.6998 71.3 79.79C71.8372 79.3823 72.271 78.854 72.5663 78.2477C72.8616 77.6415 73.0102 76.9743 73 76.3C73 74.43 71.7 72.84 69.32 71.5C67.12 70.2733 64.9234 69.0266 62.73 67.76C61.5952 67.0608 60.6661 66.0733 60.0372 64.8981C59.4083 63.7229 59.1022 62.402 59.15 61.07C59.1075 59.9076 59.3252 58.7504 59.7872 57.683C60.2491 56.6155 60.9436 55.6647 61.82 54.9C63.741 53.2728 66.205 52.4301 68.72 52.54C71.5588 52.5059 74.3435 53.3169 76.72 54.87L75.5 57.57C73.6086 56.7352 71.5674 56.2929 69.5 56.27C68.1575 56.182 66.8305 56.5993 65.78 57.44C65.338 57.8048 64.9823 58.2631 64.7385 58.7818C64.4947 59.3005 64.3689 59.8668 64.37 60.44C64.37 62.3 65.7 63.92 68.15 65.28C70.38 66.49 74.88 69.07 74.88 69.07C77.34 70.81 78.56 72.66 78.56 75.72M129 84.41H129.83V81.21H130.92V80.56H127.87V81.21H129V84.41ZM135.33 84.41H136.11V80.56H134.93L133.93 83.18L132.93 80.56H131.79V84.41H132.53V81.48H132.58L133.67 84.41H134.23L135.33 81.48V84.41Z" fill="url(#paint0_linear_24_128)"/>
<path d="M83.6599 1.46041e-05C82.9975 -0.0549249 82.3356 0.11168 81.7781 0.473672C81.2206 0.835664 80.7992 1.37254 80.5799 2.00001C79.5799 4.47001 82.0899 6.90001 82.9699 8.16001C83.7008 9.0441 84.347 9.99495 84.8999 11C85.1599 11.64 85.2399 12.33 85.5099 13C86.0685 14.7404 86.7365 16.4438 87.5099 18.1C87.9139 18.919 88.3821 19.7048 88.9099 20.45C89.2099 20.87 89.7399 21.06 89.9099 21.75C89.4757 22.6426 89.1693 23.5919 88.9999 24.57C87.6399 28.86 88.1699 34.18 90.0999 37.33C90.7099 38.33 92.0999 40.33 94.0999 39.58C95.8099 38.89 95.4299 36.73 95.9199 34.83C96.0299 34.37 95.9199 34.07 96.1899 33.76V33.84C96.7199 34.9 97.2499 35.93 97.7399 36.99C99.0929 38.9456 100.759 40.6652 102.67 42.08C103.58 42.77 104.3 43.95 105.43 44.37V44.25H105.36C105.104 43.9605 104.811 43.7051 104.49 43.49C103.758 42.7894 103.089 42.0265 102.49 41.21C100.883 39.0256 99.4615 36.7109 98.2399 34.29C97.6399 33.11 97.1099 31.82 96.6099 30.65C96.3899 30.19 96.3899 29.51 96.0099 29.28C95.307 30.0679 94.6964 30.9335 94.1899 31.86C93.5751 33.7157 93.2184 35.6471 93.1299 37.6C92.9799 37.6 93.0499 37.6 92.9799 37.67C91.7599 37.37 91.3499 36.12 90.8899 35.05C89.7083 31.7908 89.5893 28.2411 90.5499 24.91C90.8099 24.11 91.9499 21.6 91.4999 20.84C91.2699 20.12 90.4999 19.7 90.0899 19.13C89.5671 18.3609 89.112 17.5479 88.7299 16.7C87.8199 14.57 87.3699 12.21 86.3799 10.09C85.8364 9.06019 85.204 8.0798 84.4899 7.16001C83.6969 6.23069 82.9969 5.22588 82.3999 4.16001C82.2099 3.74001 81.9499 3.05001 82.2499 2.60001C82.2727 2.47074 82.3366 2.35227 82.432 2.26219C82.5275 2.17211 82.6495 2.11524 82.7799 2.10001C83.2699 1.69001 84.6799 2.22001 85.1699 2.44001C86.4842 2.93757 87.7414 3.57454 88.9199 4.34001C89.4499 4.72002 90.0199 5.45001 90.6999 5.64001H91.4999C92.7099 5.90001 94.0699 5.71001 95.2099 6.05001C97.1328 6.69462 98.9672 7.5782 100.67 8.68001C105.691 11.8908 109.77 16.3769 112.49 21.68C112.95 22.56 113.14 23.35 113.55 24.26C114.35 26.13 115.34 28.03 116.13 29.85C116.814 31.6622 117.703 33.3901 118.78 35C119.35 35.8 121.62 36.22 122.65 36.64C123.539 36.9448 124.41 37.2987 125.26 37.7C126.55 38.5 127.84 39.41 129.05 40.29C129.66 40.74 131.55 41.69 131.66 42.45C129.162 42.277 126.655 42.6418 124.31 43.52C123.75 43.74 122.84 43.74 122.76 44.47C123.06 44.77 123.1 45.26 123.37 45.68C123.895 46.5647 124.572 47.35 125.37 48C126.16 48.61 126.96 49.22 127.79 49.75C129.27 50.66 130.94 51.19 132.38 52.1C133.21 52.64 134.05 53.32 134.88 53.89C135.3 54.19 135.56 54.69 136.09 54.89V54.77C135.83 54.43 135.75 53.94 135.49 53.56C135.23 53.18 134.73 52.84 134.35 52.46C133.242 50.985 131.913 49.6898 130.41 48.62C129.2 47.78 126.54 46.62 126.05 45.24L125.97 45.16C126.859 45.0326 127.736 44.8285 128.59 44.55C129.88 44.21 131.05 44.28 132.38 43.94C132.99 43.79 133.59 43.6 134.2 43.41V43C133.52 42.32 133.02 41.4 132.31 40.76C130.33 39.0496 128.22 37.495 126 36.11C124.82 35.35 123.31 34.86 122.06 34.21C121.61 33.98 120.85 33.87 120.58 33.49C119.96 32.5718 119.44 31.5895 119.03 30.56C117.91 28.4 116.87 26.19 115.92 23.95C115.363 22.4711 114.722 21.0254 114 19.62C110.09 13.16 105.85 9.25001 99.3299 5.41001C97.7946 4.6647 96.1618 4.13953 94.4799 3.85001C93.5299 3.85001 92.5899 3.74001 91.6399 3.70001C91.0292 3.29832 90.4478 2.85387 89.8999 2.37001C88.5499 1.51001 85.8699 1.46041e-05 83.6599 1.46041e-05ZM92.9999 9.40001C92.4739 9.39703 91.9498 9.46087 91.4399 9.59001V9.66001H91.5199C91.8782 10.2135 92.283 10.7353 92.7299 11.22C93.0299 11.83 93.2999 12.44 93.5999 13.04L93.6799 12.97C93.9617 12.7457 94.1827 12.4541 94.3225 12.1222C94.4623 11.7902 94.5164 11.4284 94.4799 11.07C94.3116 10.8122 94.1581 10.5451 94.0199 10.27C93.7899 9.89001 93.2999 9.70001 93.0199 9.40001H92.9999Z" fill="url(#paint1_linear_24_128)"/>
</g>
<defs>
<linearGradient id="paint0_linear_24_128" x1="58.78" y1="70.595" x2="136.093" y2="70.595" gradientUnits="userSpaceOnUse">
<stop stop-color="#FEFEFD"/>
<stop offset="1" stop-color="#F8CF95"/>
</linearGradient>
<linearGradient id="paint1_linear_24_128" x1="80.3484" y1="27.4399" x2="136.078" y2="27.4399" gradientUnits="userSpaceOnUse">
<stop stop-color="#FEFEFD"/>
<stop offset="1" stop-color="#F8CF95"/>
</linearGradient>
<clipPath id="clip0_24_128">
<rect width="136.06" height="92.66" fill="white"/>
</clipPath>
</defs>
</svg>
