<svg width="137" height="137" viewBox="0 0 137 137" fill="none" xmlns="http://www.w3.org/2000/svg">
<g clip-path="url(#clip0_24_143)">
<path fill-rule="evenodd" clip-rule="evenodd" d="M136.06 0H0V136.06H136.06V0ZM107.93 87.33C119.88 92.19 123.93 97.4 124.93 103.61C125.579 106.709 125.435 109.922 124.51 112.95C120.09 128.08 95.4298 128.57 85.5698 118.57C85.2681 118.229 84.9827 117.912 84.7113 117.61C83.1113 115.832 81.9999 114.597 80.9398 112.28L91.2698 106.28C94.0398 110.54 96.5998 112.84 101.21 113.84C107.45 114.62 113.74 112.47 112.33 105.84C111.489 102.699 107.327 100.935 102.472 98.8772C98.9507 97.3849 95.0653 95.7384 91.8198 93.3C83.9998 88 82.1398 75.25 88.7198 67.93C91.2595 65.0675 94.6356 63.0768 98.3698 62.24L102.37 61.72C110.03 61.54 114.84 63.6 118.37 67.54C119.617 68.8854 120.717 70.3604 121.65 71.94C121.385 72.1065 121.137 72.2623 120.904 72.409C117.478 74.563 117.145 74.7724 111.65 78.33C111.126 77.1404 110.364 76.0707 109.412 75.1867C108.459 74.3027 107.335 73.6232 106.11 73.19C102.7 72.16 98.3898 73.29 97.4998 76.89C97.1912 78.2185 97.2745 79.6079 97.7398 80.89C98.8622 83.4337 102.104 84.8166 105.501 86.2658C106.311 86.6112 107.129 86.9604 107.93 87.33ZM61.2398 62.53H73.9998L73.9698 62.58C73.9698 66.4704 73.9764 70.3607 73.9831 74.2507C73.9964 82.0296 74.0098 89.807 73.9698 97.58C73.9727 98.6507 73.989 99.7055 74.005 100.743C74.0966 106.672 74.1794 112.035 71.7198 116.58C69.7098 120.58 65.8798 123.28 61.4498 124.58C54.6298 126.14 48.1098 125.25 43.2598 122.34C39.9973 120.244 37.3966 117.265 35.7598 113.75L46.1098 107.41C46.3876 107.775 46.6287 108.167 46.8298 108.58C48.1498 110.79 49.2898 112.36 51.5298 113.45C53.7298 114.2 58.5498 114.68 60.4098 110.82C61.3203 109.246 61.2739 104.84 61.2184 99.5637C61.2043 98.2339 61.1898 96.8489 61.1898 95.44C61.1898 89.94 61.2023 84.4625 61.2148 78.985C61.2273 73.5075 61.2398 68.03 61.2398 62.53Z" fill="url(#paint0_linear_24_143)"/>
</g>
<defs>
<linearGradient id="paint0_linear_24_143" x1="8.31494e-06" y1="68.03" x2="136.03" y2="68.03" gradientUnits="userSpaceOnUse">
<stop stop-color="#FEFEFD"/>
<stop offset="1" stop-color="#F8CF95"/>
</linearGradient>
<clipPath id="clip0_24_143">
<rect width="136.06" height="136.06" fill="white"/>
</clipPath>
</defs>
</svg>
