<svg width="136" height="137" viewBox="0 0 136 137" fill="none" xmlns="http://www.w3.org/2000/svg">
<g clip-path="url(#clip0_24_72)">
<path d="M63.8598 49.22V62L33.2698 31.39L43.4298 21.24L58.8598 36.68C57.9993 39.0189 58.0339 41.5932 58.9569 43.9081C59.8799 46.223 61.6261 48.1149 63.8598 49.22ZM73.2398 51.06L77.9998 55.82L73.2498 60.58L73.2398 51.06ZM102.34 31.5L83.9998 49.85L77.8098 43.69C78.3745 42.1745 78.5633 40.5445 78.3598 38.94C78.0482 36.5879 76.924 34.4187 75.1818 32.808C73.4396 31.1973 71.1891 30.2465 68.8198 30.12C67.4586 30.0438 66.0964 30.2515 64.8198 30.73L49.3898 15.24L62.4698 2.24002C63.1644 1.54519 63.9891 0.994003 64.8968 0.617949C65.8044 0.241895 66.7773 0.0483398 67.7598 0.0483398C68.7423 0.0483398 69.7151 0.241895 70.6228 0.617949C71.5305 0.994003 72.3552 1.54519 73.0498 2.24002L102.34 31.5Z" fill="url(#paint0_linear_24_72)"/>
<path d="M57.7899 73.69L29.9999 101.49L2.40988 74.17C0.847842 72.5478 -0.0173114 70.3787 -0.000491691 68.1267C0.016328 65.8747 0.913785 63.7188 2.49988 62.12L30.9999 33.67L57.7899 60.6C59.5199 62.339 60.491 64.6921 60.491 67.145C60.491 69.598 59.5199 71.9511 57.7899 73.69Z" fill="url(#paint1_linear_24_72)"/>
<path d="M73.2898 77V88.67C74.9757 89.6749 76.3135 91.1718 77.1233 92.9595C77.9332 94.7472 78.1762 96.7401 77.8198 98.67C77.4869 100.559 76.5875 102.303 75.2409 103.669C73.8942 105.035 72.1641 105.96 70.2798 106.32C67.9816 106.85 65.5688 106.517 63.4999 105.385C61.431 104.252 59.8502 102.399 59.0579 100.178C58.2656 97.9562 58.3169 95.521 59.2022 93.335C60.0875 91.1489 61.745 89.3642 63.8598 88.32V75.49C63.8472 75.3048 63.7833 75.1268 63.6752 74.9758C63.5672 74.8249 63.4192 74.707 63.248 74.6354C63.0767 74.5638 62.8889 74.5413 62.7055 74.5703C62.5222 74.5994 62.3505 74.6789 62.2098 74.8L33.0798 103.91L63.0798 133.91C63.7709 134.602 64.5915 135.151 65.495 135.526C66.3984 135.9 67.3668 136.093 68.3448 136.093C69.3228 136.093 70.2913 135.9 71.1947 135.526C72.0981 135.151 72.9188 134.602 73.6098 133.91L101.88 105.69L73.2898 77Z" fill="url(#paint2_linear_24_72)"/>
<path d="M132.77 75.64L105.77 102.64L76.77 73.64C75.9615 72.8329 75.32 71.8742 74.8824 70.819C74.4447 69.7637 74.2195 68.6325 74.2195 67.49C74.2195 66.3476 74.4447 65.2164 74.8824 64.1611C75.32 63.1058 75.9615 62.1472 76.77 61.34L80.11 57.97L87.51 65.36C86.7187 67.5182 86.688 69.8818 87.4231 72.0598C88.1581 74.2377 89.6147 76.0994 91.5519 77.3368C93.4891 78.5741 95.7907 79.1129 98.0759 78.864C100.361 78.6151 102.493 77.5934 104.118 75.9681C105.743 74.3427 106.765 72.211 107.014 69.9259C107.263 67.6408 106.724 65.3392 105.487 63.402C104.249 61.4648 102.388 60.0081 100.21 59.2731C98.0318 58.5381 95.6681 58.5687 93.51 59.36L86.12 52L105 33.14L132.77 61C134.709 62.9424 135.799 65.5751 135.799 68.32C135.799 71.0649 134.709 73.6976 132.77 75.64Z" fill="url(#paint3_linear_24_72)"/>
</g>
<defs>
<linearGradient id="paint0_linear_24_72" x1="33.2698" y1="31.0242" x2="102.325" y2="31.0242" gradientUnits="userSpaceOnUse">
<stop stop-color="#FEFEFD"/>
<stop offset="1" stop-color="#F8CF95"/>
</linearGradient>
<linearGradient id="paint1_linear_24_72" x1="-0.000728725" y1="67.58" x2="60.4777" y2="67.58" gradientUnits="userSpaceOnUse">
<stop stop-color="#FEFEFD"/>
<stop offset="1" stop-color="#F8CF95"/>
</linearGradient>
<linearGradient id="paint2_linear_24_72" x1="33.0798" y1="105.326" x2="101.865" y2="105.326" gradientUnits="userSpaceOnUse">
<stop stop-color="#FEFEFD"/>
<stop offset="1" stop-color="#F8CF95"/>
</linearGradient>
<linearGradient id="paint3_linear_24_72" x1="74.2195" y1="67.89" x2="135.785" y2="67.89" gradientUnits="userSpaceOnUse">
<stop stop-color="#FEFEFD"/>
<stop offset="1" stop-color="#F8CF95"/>
</linearGradient>
<clipPath id="clip0_24_72">
<rect width="135.82" height="136.06" fill="white"/>
</clipPath>
</defs>
</svg>
