<svg width="137" height="133" viewBox="0 0 137 133" fill="none" xmlns="http://www.w3.org/2000/svg">
<g clip-path="url(#clip0_24_118)">
<path fill-rule="evenodd" clip-rule="evenodd" d="M112 8.31677e-06H24.09C20.9257 -0.00262201 17.792 0.618689 14.8681 1.82839C11.9441 3.0381 9.28743 4.81245 7.04994 7.04994C4.81245 9.28743 3.0381 11.9441 1.82839 14.8681C0.618689 17.792 -0.00262201 20.9257 8.31677e-06 24.09V108.57C-0.00262201 111.734 0.618689 114.868 1.82839 117.792C3.0381 120.716 4.81245 123.373 7.04994 125.61C9.28743 127.848 11.9441 129.622 14.8681 130.832C17.792 132.041 20.9257 132.663 24.09 132.66H112C115.164 132.663 118.298 132.041 121.222 130.832C124.146 129.622 126.803 127.848 129.04 125.61C131.278 123.373 133.052 120.716 134.262 117.792C135.471 114.868 136.093 111.734 136.09 108.57V24.09C136.093 20.9257 135.471 17.792 134.262 14.8681C133.052 11.9441 131.278 9.28743 129.04 7.04994C126.803 4.81245 124.146 3.0381 121.222 1.82839C118.298 0.618689 115.164 -0.00262201 112 8.31677e-06ZM30.6099 34.7V93V93.05C30.6099 93.56 30.8399 93.79 31.2899 93.79H42.2899C42.3833 93.7801 42.4739 93.7517 42.5563 93.7065C42.6387 93.6613 42.7113 93.6002 42.7699 93.5267C42.8286 93.4532 42.872 93.3688 42.8977 93.2784C42.9235 93.188 42.931 93.0934 42.9199 93V74.87C43.3113 74.87 43.6653 74.862 43.9848 74.8548C44.5385 74.8422 44.9884 74.832 45.3499 74.87C45.9198 74.93 46.8296 74.93 48.1893 74.93H48.1899C52.5206 75.046 56.8375 74.3925 60.9399 73C64.6095 71.6634 67.7912 69.2519 70.0699 66.08C72.3365 62.9067 73.4699 58.88 73.4699 54C73.4605 51.4748 73.0104 48.9705 72.1399 46.6C71.2402 44.1742 69.8281 41.9708 67.9999 40.14C65.8498 38.0631 63.2637 36.4917 60.4299 35.54C56.6756 34.2634 52.7236 33.6674 48.7599 33.78C48.3559 33.78 47.952 33.7772 47.5472 33.7744C46.2486 33.7653 44.9417 33.7562 43.5999 33.84C42.5726 33.9042 41.5828 33.9105 40.6325 33.9166C39.9546 33.9209 39.2968 33.9251 38.6599 33.95L38.4385 33.9587C36.9891 34.0157 35.6066 34.07 34.3599 34.07H31.1799C30.7799 34.07 30.6099 34.3 30.6099 34.7ZM42.9999 64.06V45C43.7627 44.9456 44.5287 44.9557 45.2899 45.03C46.3599 44.97 47.6699 44.97 49.1399 44.97C51.4239 44.8812 53.7017 45.266 55.8299 46.1C57.4764 46.7227 58.8789 47.8587 59.8299 49.34C60.7293 50.8494 61.1802 52.5837 61.1299 54.34C61.2646 56.4334 60.6436 58.5057 59.3799 60.18C58.1514 61.6073 56.5366 62.6491 54.7299 63.18C52.622 63.8515 50.4221 64.1889 48.2099 64.18H45.2099C44.5883 64.18 43.925 64.1299 43.2047 64.0755C43.1369 64.0704 43.0687 64.0652 42.9999 64.06ZM103.41 58.68C105.306 59.0538 107.139 59.7005 108.85 60.6V60.56C109.172 60.6804 109.527 60.6804 109.85 60.56C109.937 60.4954 110.008 60.411 110.057 60.3136C110.106 60.2163 110.131 60.1089 110.13 60V50.8C110.123 50.5695 110.086 50.3409 110.02 50.12C109.905 49.8812 109.7 49.6978 109.45 49.61C107.889 48.9674 106.252 48.5271 104.58 48.3C102.262 47.9629 99.9224 47.7925 97.5799 47.79C94.1359 47.6643 90.7105 48.3493 87.5799 49.79C85.1186 50.9108 83.0347 52.7203 81.5799 55C80.3407 57.0699 79.6874 59.4376 79.6899 61.85C79.644 63.8552 80.094 65.8406 80.9999 67.63C82.0637 69.544 83.5476 71.1919 85.3399 72.45C87.82 74.1509 90.5088 75.5256 93.3399 76.54C95.298 77.1806 97.1639 78.0749 98.8899 79.2C99.275 79.4492 99.5979 79.7835 99.8337 80.177C100.069 80.5705 100.212 81.0129 100.25 81.47C100.248 81.9713 100.103 82.4617 99.8322 82.8833C99.5611 83.305 99.1752 83.6404 98.7199 83.85C97.2314 84.4594 95.6258 84.7293 94.0199 84.64C91.7626 84.6459 89.514 84.3602 87.3299 83.79C84.864 83.2401 82.5012 82.3018 80.3299 81.01C80.2623 80.9466 80.1756 80.9073 80.0834 80.8983C79.9911 80.8892 79.8985 80.9109 79.8199 80.96C79.7436 81.0205 79.683 81.0984 79.6429 81.1871C79.6029 81.2758 79.5847 81.3728 79.5899 81.47V91.33C79.5747 91.5512 79.6256 91.7719 79.7359 91.9642C79.8463 92.1564 80.0112 92.3116 80.2099 92.41C82.0511 93.2673 83.9982 93.8759 85.9999 94.22C88.5212 94.7321 91.0871 94.9933 93.6599 95C97.1711 95.0761 100.661 94.4399 103.92 93.13C106.482 92.0991 108.689 90.3443 110.27 88.08C111.756 85.8499 112.527 83.2196 112.48 80.54C112.535 78.5148 112.085 76.5076 111.17 74.7C110.098 72.7827 108.561 71.1662 106.7 70C103.954 68.2807 101.013 66.8943 97.9399 65.87C96.5999 65.3 95.2399 64.68 93.9399 64C93.2018 63.6224 92.5432 63.1063 91.9999 62.48C91.6646 62.0573 91.472 61.5391 91.4499 61C91.4591 60.4588 91.6146 59.9301 91.8999 59.47C92.3255 58.8876 92.9531 58.4847 93.6599 58.34C94.7654 58.0301 95.9126 57.8951 97.0599 57.94C99.1971 57.9562 101.326 58.2043 103.41 58.68Z" fill="url(#paint0_linear_24_118)"/>
</g>
<defs>
<linearGradient id="paint0_linear_24_118" x1="8.31677e-06" y1="66.33" x2="136.06" y2="66.33" gradientUnits="userSpaceOnUse">
<stop stop-color="#FEFEFD"/>
<stop offset="1" stop-color="#F8CF95"/>
</linearGradient>
<clipPath id="clip0_24_118">
<rect width="136.06" height="132.66" fill="white"/>
</clipPath>
</defs>
</svg>
