<svg width="137" height="133" viewBox="0 0 137 133" fill="none" xmlns="http://www.w3.org/2000/svg">
<g clip-path="url(#clip0_24_158)">
<path d="M68 -1.75186e-05C51.8129 -0.0518319 36.1383 5.67247 23.7941 16.1437C11.45 26.615 3.24615 41.1463 0.657521 57.1252C-1.93111 73.1041 1.2653 89.4823 9.67207 103.315C18.0788 117.148 31.1445 127.529 46.52 132.59C49.92 133.22 51.17 131.11 51.17 129.31C51.17 127.69 51.11 122.31 51.08 116.65C32.15 120.76 28.16 108.65 28.16 108.65C25.07 100.79 20.61 98.65 20.61 98.65C14.43 94.42 21.07 94.51 21.07 94.51C27.9 94.99 31.5 101.51 31.5 101.51C37.57 111.91 47.42 108.91 51.3 107.17C51.91 102.77 53.67 99.77 55.62 98.07C40.51 96.35 24.62 90.52 24.62 64.45C24.5217 57.6902 27.0282 51.1518 31.62 46.19C30.91 44.47 28.62 37.56 32.28 28.19C32.28 28.19 37.99 26.37 50.99 35.19C62.1415 32.1369 73.9086 32.1369 85.06 35.19C98.06 26.39 103.75 28.19 103.75 28.19C107.46 37.57 105.13 44.48 104.42 46.19C109.016 51.149 111.524 57.6893 111.42 64.45C111.42 90.58 95.51 96.33 80.36 98.02C82.8 100.13 84.97 104.27 84.97 110.61C84.97 119.72 84.89 127.04 84.89 129.28C84.89 131.09 86.12 133.22 89.57 132.55C104.923 127.464 117.961 117.072 126.342 103.24C134.724 89.4079 137.901 73.0412 135.303 57.0777C132.706 41.1142 124.503 26.5993 112.168 16.1384C99.8331 5.67751 84.1735 -0.0443173 68 -1.75186e-05Z" fill="url(#paint0_linear_24_158)"/>
<path d="M25.4802 96.91C25.3302 97.25 24.8002 97.35 24.3102 97.12C23.8202 96.89 23.5402 96.44 23.7002 96.12C23.8602 95.8 24.3802 95.67 24.8802 95.91C25.3802 96.15 25.6502 96.59 25.4802 96.91ZM28.8302 99.91C28.5002 100.21 27.8302 100.07 27.4402 99.59C27.3337 99.5112 27.2439 99.4119 27.1761 99.2981C27.1083 99.1842 27.0638 99.058 27.0452 98.9269C27.0266 98.7957 27.0343 98.6621 27.0677 98.5339C27.1012 98.4057 27.1598 98.2854 27.2402 98.18C27.5702 97.88 28.2402 98.02 28.6302 98.5C29.0202 98.98 29.1702 99.61 28.8302 99.91ZM31.1202 103.73C30.7102 104.02 30.0202 103.73 29.6002 103.14C29.1802 102.55 29.1902 101.81 29.6002 101.52C30.0102 101.23 30.7002 101.52 31.1202 102.09C31.5402 102.66 31.5402 103.43 31.1202 103.73ZM35.0002 108.14C34.6302 108.55 33.8402 108.44 33.2602 107.88C32.6802 107.32 32.5002 106.56 32.8702 106.15C33.2402 105.74 34.0502 105.85 34.6302 106.41C35.2102 106.97 35.4002 107.74 35.0102 108.14M40.0102 109.64C39.8502 110.17 39.0802 110.41 38.3102 110.19C37.5402 109.97 37.0402 109.33 37.2002 108.79C37.3602 108.25 38.1202 108 38.9002 108.24C39.6802 108.48 40.1702 109.1 40.0102 109.64ZM45.7202 110.27C45.7202 110.83 45.0902 111.27 44.2802 111.27C43.4702 111.27 42.8102 110.83 42.8002 110.27C42.7902 109.71 43.4402 109.27 44.2502 109.27C45.0602 109.27 45.7202 109.7 45.7202 110.27ZM51.3302 110.06C51.4302 110.6 50.8702 111.17 50.0702 111.32C49.2702 111.47 48.5402 111.12 48.4402 110.58C48.3402 110.04 48.9202 109.46 49.7102 109.31C50.5002 109.16 51.2302 109.5 51.3302 110.06Z" fill="#181816"/>
</g>
<defs>
<linearGradient id="paint0_linear_24_158" x1="-0.217765" y1="66.3517" x2="136.156" y2="66.3517" gradientUnits="userSpaceOnUse">
<stop stop-color="#FEFEFD"/>
<stop offset="1" stop-color="#F8CF95"/>
</linearGradient>
<clipPath id="clip0_24_158">
<rect width="136.06" height="132.7" fill="white"/>
</clipPath>
</defs>
</svg>
