<svg width="137" height="133" viewBox="0 0 137 133" fill="none" xmlns="http://www.w3.org/2000/svg">
<g clip-path="url(#clip0_24_123)">
<path fill-rule="evenodd" clip-rule="evenodd" d="M112 8.31677e-06H24.09C20.9257 -0.00262201 17.792 0.618689 14.8681 1.82839C11.9441 3.0381 9.28743 4.81245 7.04994 7.04994C4.81245 9.28743 3.0381 11.9441 1.82839 14.8681C0.618689 17.792 -0.00262201 20.9257 8.31677e-06 24.09V108.57C-0.00262201 111.734 0.618689 114.868 1.82839 117.792C3.0381 120.716 4.81245 123.373 7.04994 125.61C9.28743 127.848 11.9441 129.622 14.8681 130.832C17.792 132.041 20.9257 132.663 24.09 132.66H112C115.164 132.663 118.298 132.041 121.222 130.832C124.146 129.622 126.803 127.848 129.04 125.61C131.278 123.373 133.052 120.716 134.262 117.792C135.471 114.868 136.093 111.734 136.09 108.57V24.09C136.093 20.9257 135.471 17.792 134.262 14.8681C133.052 11.9441 131.278 9.28743 129.04 7.04994C126.803 4.81245 124.146 3.0381 121.222 1.82839C118.298 0.618689 115.164 -0.00262201 112 8.31677e-06ZM44.6699 79.3699H65.7599L70.4099 92.86C70.4649 93.0543 70.5858 93.2234 70.7518 93.3383C70.9178 93.4533 71.1187 93.5069 71.3199 93.4899H83.1699C83.7399 93.4899 83.9099 93.2 83.7399 92.58L63.0399 34.1899C62.9899 33.8999 62.7599 33.7299 62.3099 33.7299H47.6199C47.4782 33.7568 47.3523 33.8373 47.2685 33.9547C47.1847 34.072 47.1493 34.2172 47.1699 34.36C47.1731 35.5946 47.0593 36.8268 46.8299 38.04C46.6586 38.5463 46.5206 39.0193 46.3912 39.4632C46.3467 39.6155 46.3033 39.7643 46.2599 39.91L28.0099 92.4899C27.8399 93.1499 28.0099 93.4899 28.6299 93.4899H39.2899C39.5371 93.5146 39.7847 93.4463 39.9843 93.2984C40.184 93.1506 40.3214 92.9336 40.3699 92.69L44.6699 79.3699ZM62.3999 67.86H47.9999L47.9699 67.91C48.5073 66.4053 49.0047 64.7607 49.5253 63.0394C49.8282 62.0381 50.1389 61.0108 50.4699 59.9699C51.0275 58.2166 51.5659 56.4633 52.097 54.7338C52.4231 53.6717 52.7465 52.6186 53.0699 51.5799C53.8495 49.1813 54.4938 46.7408 54.9999 44.27H55.1499C55.3334 44.9098 55.5169 45.5718 55.7076 46.2601C55.9224 47.0348 56.1463 47.8427 56.3899 48.6899C56.8499 50.2899 57.3499 51.9299 57.9199 53.6899C58.4899 55.4499 59.0399 57.2 59.5699 58.8999C59.7377 59.4382 59.9015 59.9774 60.0631 60.5096C60.4121 61.6586 60.7513 62.7753 61.0999 63.7799C61.6099 65.2499 62.0599 66.67 62.3999 67.86ZM96.3291 43.6505C95.4221 43.6569 94.5223 43.487 93.6799 43.15C92.8217 42.8067 92.04 42.2969 91.3799 41.65C90.0837 40.2263 89.3916 38.3545 89.4499 36.43C89.4192 35.5035 89.5812 34.5808 89.9254 33.7202C90.2697 32.8595 90.7888 32.0797 91.4499 31.43C92.7968 30.1443 94.5878 29.4279 96.4499 29.4299C97.4022 29.3817 98.3541 29.5349 99.2432 29.8795C100.132 30.2241 100.939 30.7525 101.61 31.43C102.858 32.791 103.529 34.5838 103.48 36.43C103.513 37.3896 103.353 38.3462 103.01 39.2429C102.666 40.1396 102.146 40.9581 101.48 41.65C100.814 42.3343 100.008 42.8671 99.1178 43.2122C98.2303 43.5562 97.2793 43.7057 96.3291 43.6505ZM89.9999 49.2099V92.86C89.9999 93.43 90.3099 93.7699 90.8799 93.7699H102C102.51 93.7699 102.74 93.49 102.74 92.86V49.2099C102.74 48.6999 102.51 48.4199 102 48.4199H90.7399C90.2299 48.4199 89.9999 48.6399 89.9999 49.2099Z" fill="url(#paint0_linear_24_123)"/>
</g>
<defs>
<linearGradient id="paint0_linear_24_123" x1="8.31677e-06" y1="66.33" x2="136.06" y2="66.33" gradientUnits="userSpaceOnUse">
<stop stop-color="#FEFEFD"/>
<stop offset="1" stop-color="#F8CF95"/>
</linearGradient>
<clipPath id="clip0_24_123">
<rect width="136.06" height="132.66" fill="white"/>
</clipPath>
</defs>
</svg>
