<svg width="91" height="137" viewBox="0 0 91 137" fill="none" xmlns="http://www.w3.org/2000/svg">
<g clip-path="url(#clip0_24_105)">
<path d="M45.3201 68.06C45.3181 63.5715 46.6474 59.1832 49.1399 55.4503C51.6323 51.7175 55.1759 48.8077 59.3224 47.0891C63.4688 45.3705 68.0319 44.9203 72.4342 45.7955C76.8366 46.6707 80.8805 48.8319 84.0543 52.0057C87.2282 55.1796 89.3894 59.2235 90.2646 63.6258C91.1398 68.0282 90.6896 72.5912 88.971 76.7377C87.2524 80.8842 84.3426 84.4278 80.6097 86.9202C76.8768 89.4127 72.4886 90.742 68.0001 90.74C61.9858 90.7373 56.2186 88.347 51.9658 84.0942C47.7131 79.8415 45.3227 74.0743 45.3201 68.06Z" fill="url(#paint0_linear_24_105)"/>
<path d="M0 113.38C0 107.362 2.39055 101.591 6.64575 97.3357C10.9009 93.0805 16.6722 90.6899 22.69 90.6899H45.37V113.38C45.2454 119.314 42.8006 124.963 38.56 129.115C34.3193 133.268 28.6203 135.594 22.685 135.594C16.7497 135.594 11.0507 133.268 6.81004 129.115C2.56935 124.963 0.124595 119.314 0 113.38Z" fill="url(#paint1_linear_24_105)"/>
<path d="M45.3201 0.05V45.37H68.0001C73.934 45.2454 79.5829 42.8006 83.7355 38.56C87.8881 34.3193 90.2138 28.6203 90.2138 22.685C90.2138 16.7497 87.8881 11.0507 83.7355 6.81004C79.5829 2.56935 73.934 0.124595 68.0001 0L45.3201 0V0.05Z" fill="url(#paint2_linear_24_105)"/>
<path d="M1.98869e-05 22.7399C1.95973e-05 25.7192 0.586986 28.6692 1.72739 31.4215C2.86779 34.1738 4.53928 36.6745 6.64637 38.7807C8.75347 40.8868 11.2549 42.5572 14.0077 43.6964C16.7605 44.8356 19.7108 45.4213 22.69 45.4199H45.37V0.0499466H22.69C19.7092 0.0459977 16.7569 0.630197 14.0023 1.76908C11.2476 2.90796 8.74471 4.57914 6.63696 6.68689C4.52921 8.79463 2.85803 11.2975 1.71915 14.0522C0.58027 16.8069 -0.00392907 19.7591 1.98869e-05 22.7399Z" fill="url(#paint3_linear_24_105)"/>
<path d="M0 68.06C-2.89592e-07 71.0392 0.586966 73.9893 1.72737 76.7416C2.86777 79.4939 4.53926 81.9945 6.64635 84.1007C8.75345 86.2069 11.2548 87.8773 14.0077 89.0165C16.7605 90.1556 19.7108 90.7413 22.69 90.74H45.37V45.37H22.69C16.6722 45.37 10.9009 47.7605 6.64575 52.0157C2.39055 56.2709 0 62.0422 0 68.06Z" fill="url(#paint4_linear_24_105)"/>
</g>
<defs>
<linearGradient id="paint0_linear_24_105" x1="45.3201" y1="68.05" x2="90.6901" y2="68.05" gradientUnits="userSpaceOnUse">
<stop stop-color="#FEFEFD"/>
<stop offset="1" stop-color="#F8CF95"/>
</linearGradient>
<linearGradient id="paint1_linear_24_105" x1="2.77266e-06" y1="113.142" x2="45.36" y2="113.142" gradientUnits="userSpaceOnUse">
<stop stop-color="#FEFEFD"/>
<stop offset="1" stop-color="#F8CF95"/>
</linearGradient>
<linearGradient id="paint2_linear_24_105" x1="45.3201" y1="22.685" x2="90.2039" y2="22.685" gradientUnits="userSpaceOnUse">
<stop stop-color="#FEFEFD"/>
<stop offset="1" stop-color="#F8CF95"/>
</linearGradient>
<linearGradient id="paint3_linear_24_105" x1="2.77267e-06" y1="22.7349" x2="45.36" y2="22.7349" gradientUnits="userSpaceOnUse">
<stop stop-color="#FEFEFD"/>
<stop offset="1" stop-color="#F8CF95"/>
</linearGradient>
<linearGradient id="paint4_linear_24_105" x1="2.77266e-06" y1="68.055" x2="45.36" y2="68.055" gradientUnits="userSpaceOnUse">
<stop stop-color="#FEFEFD"/>
<stop offset="1" stop-color="#F8CF95"/>
</linearGradient>
<clipPath id="clip0_24_105">
<rect width="90.69" height="136.06" fill="white"/>
</clipPath>
</defs>
</svg>
