<svg width="131" height="137" viewBox="0 0 131 137" fill="none" xmlns="http://www.w3.org/2000/svg">
<g clip-path="url(#clip0_24_93)">
<path fill-rule="evenodd" clip-rule="evenodd" d="M46.72 2.77989C25.42 4.42989 7.31 5.86989 6.48 5.99989C5.30106 6.24037 4.19081 6.74144 3.23053 7.46641C2.27024 8.19139 1.48422 9.12191 0.93 10.1899L0 12.0499L0.1 56.7099L0.21 101.37L1.54 104.15C2.37 105.69 7.54 112.89 13.17 120.15C24.39 134.76 25.17 135.48 29.43 136C30.67 136.1 40.03 135.69 50.01 135.07C59.99 134.45 76.36 133.42 86.01 132.91C127.48 130.34 125.32 130.54 127.79 128.49C130.79 126.02 130.46 130.13 130.67 75.7999C130.77 29.7999 130.67 26.7099 129.95 25.3699C129.23 23.7299 127.79 22.6999 108.85 9.41989C96.22 0.519891 95.29 0.10989 89.63 -0.000109651C87.26 -0.10011 67.92 1.23989 46.72 2.77989ZM94.57 8.64989C96.42 9.46989 109.49 18.5299 111.34 20.2799C111.86 20.7899 112.06 21.2799 111.76 21.5099C111.24 22.0299 30.25 26.8599 27.89 26.4499C26.6422 26.2538 25.4497 25.7972 24.39 25.1099C20.68 22.5399 11.53 14.9999 11.53 14.5199C11.53 13.0699 11.22 13.0699 47.23 10.3999C54.13 9.98989 65.55 9.15989 72.45 8.54989C87.37 7.40989 91.79 7.40989 94.57 8.64989ZM120.3 31.9099C121.004 32.7268 121.464 33.7245 121.63 34.7899C121.74 35.7899 121.84 54.9599 121.74 77.1899C121.63 115.26 121.53 117.73 120.81 118.76C120.357 119.527 119.649 120.111 118.81 120.41C117.06 121.13 32.26 125.96 30.51 125.41C29.566 125.117 28.7147 124.582 28.04 123.86L27.04 122.86L27 81.7099C26.9 52.7999 27 40.0399 27.31 38.8999C27.5813 38.0323 28.0782 37.2523 28.75 36.6399C29.47 36.1299 34.51 35.7099 51.75 34.6399C63.89 34.0299 82.75 32.8999 93.43 32.1799C119.17 30.6699 119.06 30.6699 120.3 31.9099Z" fill="url(#paint0_linear_24_93)"/>
<path fill-rule="evenodd" clip-rule="evenodd" d="M97.55 45.9999C92.92 46.3099 88.81 46.7199 88.4 46.9999C87.7501 47.3064 87.1852 47.7675 86.7547 48.3428C86.3241 48.918 86.041 49.59 85.93 50.2999C85.82 51.6299 86.24 51.8399 90.87 52.4599L92.82 52.6599V70.9099C92.82 81.7099 92.72 88.8099 92.41 88.6099C92.1 88.4099 86.24 79.1399 79 68.2299C71.8 57.1199 65.83 48.0599 65.73 48.0599C65.63 48.0599 60.99 48.1699 55.33 48.5799C48.44 48.9899 44.63 49.4999 43.91 49.9099C43.1805 50.3979 42.5645 51.0372 42.1038 51.7843C41.6431 52.5314 41.3485 53.3689 41.24 54.2399C41.24 55.1599 42.88 55.6799 46.24 55.6799H48.09V108L45.09 108.93C42.92 109.55 42.09 109.93 41.69 110.93C41.07 112.37 41.07 113.6 41.79 113.6C42 113.6 46.79 113.4 52.39 112.98C63.3 112.37 64.53 112.06 65.67 109.79C66.0277 109.303 66.2735 108.743 66.39 108.15C65.3336 107.687 64.2258 107.351 63.09 107.15C61.24 106.74 59.39 106.22 58.98 106.22C58.26 106.02 58.26 104.68 58.26 86.3599V66.5899L71.26 86.8599C84.85 108.16 86.49 110.63 88.65 111.66C91.23 113 97.81 112.07 101.11 109.91L102.11 109.29L102.21 80.2899L102.31 51.1699L104.58 50.7599C107.25 50.2399 108.49 49.0099 108.49 46.8499C108.49 45.5099 108.38 45.4099 107.15 45.5099C106.51 45.4899 102.08 45.7999 97.55 45.9999Z" fill="url(#paint1_linear_24_93)"/>
</g>
<defs>
<linearGradient id="paint0_linear_24_93" x1="7.98754e-06" y1="68.0048" x2="130.674" y2="68.0048" gradientUnits="userSpaceOnUse">
<stop stop-color="#FEFEFD"/>
<stop offset="1" stop-color="#F8CF95"/>
</linearGradient>
<linearGradient id="paint1_linear_24_93" x1="41.2368" y1="79.5406" x2="108.475" y2="79.5406" gradientUnits="userSpaceOnUse">
<stop stop-color="#FEFEFD"/>
<stop offset="1" stop-color="#F8CF95"/>
</linearGradient>
<clipPath id="clip0_24_93">
<rect width="130.72" height="136.06" fill="white"/>
</clipPath>
</defs>
</svg>
