<svg width="137" height="109" viewBox="0 0 137 109" fill="none" xmlns="http://www.w3.org/2000/svg">
<g clip-path="url(#clip0_24_85)">
<path fill-rule="evenodd" clip-rule="evenodd" d="M28.26 0C20.5 0 14.75 6.8 15 14.16C15.25 21.24 14.93 30.41 12.62 37.89C10.31 45.37 6.4 50.14 0 50.75V57.64C6.4 58.25 10.31 63 12.63 70.5C14.95 78 15.26 87.14 15 94.22C14.74 101.59 20.49 108.39 28.25 108.39H107.8C115.57 108.39 121.31 101.59 121.05 94.22C120.81 87.14 121.13 77.98 123.43 70.5C125.73 63.02 129.66 58.25 136.05 57.64V50.75C129.66 50.14 125.75 45.39 123.43 37.89C121.11 30.39 120.81 21.24 121.05 14.16C121.32 6.8 115.58 0 107.81 0H28.26ZM92.26 66.72C92.26 76.87 84.69 83.02 72.13 83.02H50.74C50.4371 83.0213 50.137 82.9628 49.8568 82.8478C49.5766 82.7328 49.3218 82.5636 49.1072 82.3499C48.8926 82.1362 48.7222 81.8822 48.606 81.6025C48.4898 81.3228 48.43 81.0229 48.43 80.72V27.72C48.43 27.4171 48.4898 27.1172 48.606 26.8375C48.7222 26.5578 48.8926 26.3038 49.1072 26.0901C49.3218 25.8764 49.5766 25.7072 49.8568 25.5922C50.137 25.4772 50.4371 25.4187 50.74 25.42H72C82.47 25.42 89.34 31.09 89.34 39.8C89.3011 42.7767 88.233 45.6482 86.3171 47.9268C84.4013 50.2054 81.7558 51.7506 78.83 52.3V52.62C86.83 53.5 92.25 59.05 92.25 66.72H92.26ZM69.8 32.72H57.59V49.9H67.86C75.8 49.9 80.18 46.7 80.18 40.99C80.18 35.63 76.41 32.68 69.79 32.68L69.8 32.72ZM57.6 56.72V75.72H70.23C78.5 75.72 82.88 72.4 82.88 66.17C82.88 59.94 78.38 56.74 69.7 56.74L57.6 56.72Z" fill="url(#paint0_linear_24_85)"/>
</g>
<defs>
<linearGradient id="paint0_linear_24_85" x1="8.31433e-06" y1="54.195" x2="136.02" y2="54.195" gradientUnits="userSpaceOnUse">
<stop stop-color="#FEFEFD"/>
<stop offset="1" stop-color="#F8CF95"/>
</linearGradient>
<clipPath id="clip0_24_85">
<rect width="136.06" height="108.39" fill="white"/>
</clipPath>
</defs>
</svg>
