<svg width="137" height="133" viewBox="0 0 137 133" fill="none" xmlns="http://www.w3.org/2000/svg">
<g clip-path="url(#clip0_24_113)">
<path fill-rule="evenodd" clip-rule="evenodd" d="M112 8.31677e-06H24.09C20.9257 -0.00262201 17.792 0.618689 14.8681 1.82839C11.9441 3.0381 9.28743 4.81245 7.04994 7.04994C4.81245 9.28743 3.0381 11.9441 1.82839 14.8681C0.618689 17.792 -0.00262201 20.9257 8.31677e-06 24.09V108.57C-0.00262201 111.734 0.618689 114.868 1.82839 117.792C3.0381 120.716 4.81245 123.373 7.04994 125.61C9.28743 127.848 11.9441 129.622 14.8681 130.832C17.792 132.041 20.9257 132.663 24.09 132.66H112C115.164 132.663 118.298 132.041 121.222 130.832C124.146 129.622 126.803 127.848 129.04 125.61C131.278 123.373 133.052 120.716 134.262 117.792C135.471 114.868 136.093 111.734 136.09 108.57V24.09C136.093 20.9257 135.471 17.792 134.262 14.8681C133.052 11.9441 131.278 9.28743 129.04 7.04994C126.803 4.81245 124.146 3.0381 121.222 1.82839C118.298 0.618689 115.164 -0.00262201 112 8.31677e-06ZM54.5501 62.93L71.5501 34.87H71.5901C71.7001 34.75 71.7601 34.53 71.7601 34.47C71.7267 34.3351 71.6426 34.2182 71.5253 34.1437C71.4079 34.0692 71.2664 34.0428 71.1301 34.07H59.1301C58.877 34.0221 58.6151 34.0646 58.3901 34.19C58.2171 34.3332 58.0973 34.5305 58.0501 34.75C57.0282 36.6702 55.9724 38.665 54.9273 40.6394C54.7043 41.0609 54.4817 41.4814 54.2601 41.9C53.6632 43.0274 53.0462 44.1548 52.4292 45.2821C51.7436 46.5348 51.058 47.7874 50.4001 49.04C49.1501 51.42 47.9101 53.86 46.7101 56.35H46.6001C45.4101 53.91 44.2101 51.53 42.8001 49.15C41.3901 46.77 40.0201 44.39 38.7201 41.95C37.4201 39.51 36.1701 37.08 35.0901 34.64C34.9475 34.4271 34.7553 34.2521 34.5301 34.13C34.2691 34.0599 34.0003 34.023 33.7301 34.02H20.8601C20.7559 34.008 20.6503 34.0217 20.5526 34.0601C20.455 34.0985 20.3682 34.1603 20.3001 34.24C20.1801 34.36 20.2401 34.58 20.4101 34.81L37.5901 63.89L19.9601 92.83C19.898 92.9193 19.8552 93.0206 19.8345 93.1273C19.8139 93.2341 19.8158 93.344 19.8401 93.45C19.8401 93.6625 19.9379 93.6504 20.0856 93.6322C20.1326 93.6264 20.1846 93.62 20.2401 93.62H32.6901C33.3201 93.62 33.7701 93.56 34.0001 93C35.3201 90.65 36.6701 88.21 37.9101 85.83C39.1501 83.45 40.4501 81.02 41.7601 78.58C43.0701 76.14 44.3701 73.7 45.5601 71.26H45.6701C46.8192 73.357 47.9613 75.4047 49.1023 77.4504C49.3216 77.8436 49.5408 78.2367 49.7601 78.63L49.7985 78.6989C51.1446 81.1139 52.4313 83.4224 53.6101 85.78C54.2051 86.97 54.8151 88.1451 55.4251 89.3201C56.0351 90.4951 56.6451 91.67 57.2401 92.86C57.6401 93.43 58.2601 93.49 59.1701 93.49H72.1701C72.3014 93.4669 72.4162 93.478 72.5107 93.4871C72.6609 93.5017 72.7594 93.5112 72.7901 93.37C72.8351 93.1375 72.7961 92.8965 72.6801 92.69L54.5501 62.93ZM85.5501 92.13C89.3746 93.8718 93.5381 94.7427 97.7401 94.68C100.668 94.6695 103.589 94.4018 106.47 93.88C109.643 93.3235 112.742 92.4111 115.71 91.16C115.887 91.0877 116.036 90.9622 116.139 90.8009C116.241 90.6397 116.29 90.4506 116.28 90.26C116.272 90.1289 116.264 89.9959 116.256 89.8609C116.203 88.9974 116.145 88.051 116.05 86.97C115.94 85.72 115.94 84.57 115.94 83.57V29.48C115.911 29.3547 115.837 29.2444 115.732 29.1705C115.627 29.0966 115.498 29.0644 115.37 29.08H103.86C103.46 29.08 103.29 29.31 103.29 29.71V47.58C103.007 47.5592 102.745 47.5471 102.498 47.5356C102.152 47.5196 101.838 47.505 101.54 47.47C101.145 47.4254 100.748 47.4053 100.35 47.41C95.3634 47.254 90.4208 48.3872 86.0001 50.7C82.2564 52.7568 79.1447 55.7959 77.0001 59.49C74.8916 63.1333 73.8131 67.2812 73.8801 71.49C73.8801 76.65 74.9001 80.96 77.0001 84.42C79.0249 87.779 82.0003 90.4621 85.5501 92.13ZM103.29 58.34V83.34H103.25C102.611 83.5729 101.929 83.6684 101.25 83.62C100.52 83.68 99.7201 83.74 98.8701 83.74C97.2738 83.7476 95.6868 83.4977 94.1701 83C92.739 82.5374 91.4325 81.7542 90.3501 80.71C89.2223 79.5756 88.3525 78.2112 87.8001 76.71C87.101 74.844 86.7617 72.8624 86.8001 70.87C86.6375 68.5171 87.1891 66.17 88.3828 64.1358C89.5765 62.1017 91.3566 60.4755 93.4901 59.47C95.4759 58.4774 97.6701 57.9734 99.8901 58C100.52 58 101.23 58 101.76 58.06C102.254 58.1159 102.713 58.2151 103.185 58.3173C103.22 58.3249 103.255 58.3325 103.29 58.34Z" fill="url(#paint0_linear_24_113)"/>
</g>
<defs>
<linearGradient id="paint0_linear_24_113" x1="8.31677e-06" y1="66.33" x2="136.06" y2="66.33" gradientUnits="userSpaceOnUse">
<stop stop-color="#FEFEFD"/>
<stop offset="1" stop-color="#F8CF95"/>
</linearGradient>
<clipPath id="clip0_24_113">
<rect width="136.06" height="132.66" fill="white"/>
</clipPath>
</defs>
</svg>
