<svg width="137" height="126" viewBox="0 0 137 126" fill="none" xmlns="http://www.w3.org/2000/svg">
<g clip-path="url(#clip0_24_98)">
<path d="M4.25011 43.0001C4.48011 42.3001 14.2501 8.68005 53.1001 8.21005C53.1001 8.21005 69.3801 -10.1999 91.5601 8.21005C91.5601 8.21005 97.5601 13.2101 100.88 23.4201C100.88 23.4201 130 27.8401 134.71 51.9101C134.71 51.9101 144.53 91.5401 111.27 119.38C108.785 121.373 106.176 123.206 103.46 124.87H95.1101C92.1101 124.87 90.1101 124.87 87.3801 124.87C86.1073 124.341 85.0156 123.454 84.238 122.316C83.4604 121.178 83.0303 119.838 83.0001 118.46C83.0001 118.46 82.6401 101.56 82.7401 98.6401C82.7401 98.6401 82.8201 95.9001 78.8401 96.0701C78.8401 96.0701 75.0401 95.6401 74.5001 98.9001C74.5001 98.9001 74.4101 116.34 74.3301 119.43C74.208 120.925 73.5182 122.316 72.4024 123.319C71.2866 124.321 69.8295 124.858 68.3301 124.82C68.3301 124.82 47.7101 125.45 44.9701 124.47C44.9701 124.47 40.2001 123.59 39.8401 119.07C39.8401 119.07 35.9401 96.0701 35.2401 88.9101C35.2401 88.9101 22.1401 81.65 19.4901 79.7001C19.4901 79.7001 20.3701 103.15 28.4901 113.06C28.4901 113.06 29.9101 114.3 27.0701 116.06C26.7799 116.302 26.431 116.462 26.0586 116.526C25.6863 116.589 25.3038 116.552 24.9501 116.42C24.9501 116.42 -9.99989 96.9301 2.84011 47.1601" fill="url(#paint0_linear_24_98)"/>
<path d="M43.3301 75C43.3301 75 73.7901 92.4 92.2101 64.53C92.2101 64.53 107.14 45.04 101.21 24.25C101.21 24.25 111.68 41.72 91.4301 68.83C91.4301 68.83 74.2601 92.99 43.3501 75.04L43.3301 75Z" fill="#020320"/>
<path d="M31.2802 70.9401C31.2802 70.9401 33.4502 81.0001 26.7702 84.1601C26.7702 84.1601 11.5702 77.9001 13.1002 66.3301C13.1002 66.3301 13.5802 63.4501 16.4102 65.2201C16.4102 65.2201 23.1402 68.8801 28.4102 69.9301C28.4402 69.9301 31.1402 70.1801 31.2802 70.9401Z" fill="#020320"/>
<path d="M27.0601 53.9401C27.0601 53.9401 29.3501 44.1501 38.0001 44.7701C38.0001 44.7701 45.3501 44.9601 45.6101 55.0701C45.6101 55.0701 39.8201 39.9601 27.0601 53.9401Z" fill="#020320"/>
</g>
<defs>
<linearGradient id="paint0_linear_24_98" x1="0.00586769" y1="62.5236" x2="136.034" y2="62.5236" gradientUnits="userSpaceOnUse">
<stop stop-color="#FEFEFD"/>
<stop offset="1" stop-color="#F8CF95"/>
</linearGradient>
<clipPath id="clip0_24_98">
<rect width="136.06" height="125.02" fill="white"/>
</clipPath>
</defs>
</svg>
