<svg width="137" height="137" viewBox="0 0 137 137" fill="none" xmlns="http://www.w3.org/2000/svg">
<g clip-path="url(#clip0_24_89)">
<path d="M67.9999 136.06C30.2999 136.06 -0.310107 106.06 -0.00010738 68.06C0.309893 30.06 28.9099 0 67.9999 0C107.09 0 136 30.61 136 68C136.008 76.9349 134.255 85.7838 130.841 94.0409C127.427 102.298 122.42 109.801 116.104 116.122C109.789 122.443 102.29 127.457 94.0362 130.878C85.7822 134.299 76.9348 136.06 67.9999 136.06ZM88.1299 125.57L68.8799 73.7L50.7399 126.7C64.0599 129.82 73.1299 130.7 88.1599 125.56L88.1299 125.57ZM41.0999 122.74L12.1899 43.65C8.18989 52.16 7.36989 59.25 6.80989 68.03C6.88304 79.4336 10.1295 90.5916 16.1858 100.254C22.242 109.917 30.8688 117.703 41.0999 122.74ZM129 68C129.28 53 122.48 41.07 121.91 39.37C122.499 47.5313 121.438 55.7277 118.79 63.47L98.9499 120.47C123.9 105.47 128.71 83.05 129.28 68.03L129 68ZM66.0499 65.48L56.4099 39.12L49.3199 38.55C46.4899 36.55 48.1899 33.45 50.1699 33.45C61.0199 34.3 71.9198 34.3 82.7699 33.45C83.1048 33.4316 83.44 33.4794 83.7564 33.5905C84.0728 33.7017 84.3642 33.8741 84.614 34.0979C84.8638 34.3217 85.0671 34.5925 85.2122 34.8948C85.3573 35.1972 85.4415 35.5251 85.4599 35.86C85.4783 36.1949 85.4305 36.5301 85.3194 36.8465C85.2082 37.1629 85.0358 37.4543 84.812 37.7041C84.5882 37.9539 84.3174 38.1572 84.0151 38.3023C83.7127 38.4475 83.3848 38.5316 83.0499 38.55L76.2499 39.12L98.3599 104.31L108.85 68.6C109.41 53 105.16 51.31 99.4899 40C94.9599 31.21 99.7799 22.71 108.56 22.42C101.47 15.59 86.9999 7.09 67.9999 6.8C57.8827 6.78108 47.9205 9.28591 39.0153 14.0877C30.1102 18.8895 22.5433 25.8366 16.9999 34.3L37.9999 33.73C40.5499 34.87 39.4199 38.55 37.9999 38.84L30.6299 39.4L52.7399 105.73L66.0499 65.48Z" fill="url(#paint0_linear_24_89)"/>
</g>
<defs>
<linearGradient id="paint0_linear_24_89" x1="-0.00243309" y1="68.03" x2="135.97" y2="68.03" gradientUnits="userSpaceOnUse">
<stop stop-color="#FEFEFD"/>
<stop offset="1" stop-color="#F8CF95"/>
</linearGradient>
<clipPath id="clip0_24_89">
<rect width="136.06" height="136.06" fill="white"/>
</clipPath>
</defs>
</svg>
