<svg width="137" height="102" viewBox="0 0 137 102" fill="none" xmlns="http://www.w3.org/2000/svg">
<g clip-path="url(#clip0_24_134)">
<path d="M117.13 58.57C112.854 58.565 108.634 59.5472 104.8 61.44C103.52 58.91 102.25 56.7 102.03 55.06C101.677 53.2927 101.596 51.4818 101.79 49.69C102.2 47.7217 102.745 45.7839 103.42 43.89C103.42 43.66 103.12 42.49 100.42 42.46C97.7199 42.43 95.2799 43 94.9999 43.71C94.5228 45.035 94.1386 46.3917 93.8499 47.77C93.3799 50.27 88.3799 59.12 85.5399 63.77C84.6719 62.3207 84.0343 60.7452 83.6499 59.1C83.2973 57.3327 83.2164 55.5218 83.4099 53.73C83.8135 51.7612 84.3548 49.8231 85.0299 47.93C85.0299 47.7 84.7399 46.53 82.0299 46.5C79.3199 46.47 76.9299 47.03 76.6599 47.75C76.3899 48.47 76.0999 50.17 75.5199 51.81C74.9399 53.45 68.3199 68.24 66.5899 72.09C65.7099 74.09 64.9399 75.63 64.3799 76.69C63.8199 77.75 64.3799 76.77 64.2999 76.88L63.5599 78.29C63.1899 78.96 62.7899 79.59 62.5599 79.59C62.2381 78.1992 62.2587 76.7511 62.6199 75.37C63.6299 70.26 65.9999 62.26 65.9999 62C65.9999 61.74 66.4499 60.46 64.4499 59.74C63.9934 59.517 63.4782 59.4434 62.9774 59.5295C62.4767 59.6157 62.0157 59.8573 61.6599 60.22C61.4999 60.22 61.3699 60.64 61.3699 60.64C61.3699 60.64 63.5199 51.64 57.2499 51.64C53.3199 51.64 47.8999 55.92 45.2499 59.83L36.1099 64.83C34.6499 65.63 33.1099 66.48 31.6999 67.25L31.4099 66.93C23.7599 58.78 9.69993 53 10.2899 42.14C10.4999 38.14 11.8799 27.74 37.2899 15.14C58.0999 4.72004 74.7699 7.56004 77.6599 13.89C81.7799 22.89 68.7599 39.72 47.1299 42.14C38.8899 43.07 34.5499 39.88 33.4699 38.69C32.3899 37.5 32.1599 37.38 31.7399 37.62C31.0499 37.99 31.4699 39.11 31.7399 39.78C32.3799 41.45 35.0299 44.43 39.5499 45.91C43.5499 47.22 53.1899 47.91 64.8799 43.42C77.9999 38.34 88.2099 24.25 85.2099 12.48C82.1499 0.490038 62.2699 -3.43996 43.4799 3.23004C32.2999 7.23004 20.1799 13.44 11.4799 21.6C1.08993 31.27 -0.550066 39.72 0.139934 43.23C2.55993 55.75 19.7999 63.91 26.7099 69.94L25.7599 70.47C22.2999 72.17 9.14993 79.06 5.84993 86.34C2.12993 94.58 6.43993 100.5 9.30993 101.34C18.1799 103.81 27.3099 99.34 32.1899 92.07C37.0699 84.8 36.4899 75.27 34.2399 70.94L34.1599 70.78L36.8699 69.18C38.6199 68.18 40.3499 67.18 41.8699 66.37C40.8621 69.273 40.263 72.302 40.0899 75.37C39.7099 80 41.6199 86.1 44.1499 88.49C44.5981 88.8738 45.1177 89.165 45.679 89.3469C46.2402 89.5289 46.8319 89.5979 47.4199 89.55C50.3399 89.55 51.6699 87.14 53.1299 84.24C54.9399 80.7 56.5299 76.61 56.5299 76.61C56.5299 76.61 54.5299 87.69 59.9899 87.69C61.9899 87.69 63.9899 85.12 64.8799 83.79L65.0399 83.53C65.1499 83.36 65.2599 83.19 65.3599 83.02V83C66.1499 81.62 67.9399 78.45 70.5899 73.22C73.9999 66.46 77.3199 58 77.3199 58C77.6482 59.8467 78.0823 61.6731 78.6199 63.47C79.4226 65.6579 80.3714 67.7894 81.4599 69.85C80.6699 70.97 80.1899 71.6 80.1899 71.6C79.5599 72.45 78.8399 73.36 78.0899 74.26C75.3799 77.5 72.0899 81.2 71.7199 82.26C71.2099 83.51 71.3199 84.44 72.2999 85.18C73.3286 85.7182 74.5054 85.9043 75.6499 85.71C77.3695 85.6187 79.0607 85.2331 80.6499 84.57C82.198 84.0403 83.6627 83.2928 84.9999 82.35C86.3595 81.4117 87.4534 80.1378 88.1753 78.6519C88.8972 77.1661 89.2226 75.5188 89.1199 73.87C88.9689 71.7907 88.4368 69.7569 87.5499 67.87C87.7899 67.53 88.0299 67.18 88.2699 66.81C91.0332 62.6832 93.5187 58.377 95.7099 53.92C96.0347 55.7765 96.4654 57.6128 96.9999 59.42C97.6681 61.3015 98.4771 63.1301 99.4199 64.89C95.4899 68.11 93.0199 71.83 92.1699 74.27C90.5999 78.79 91.8199 80.84 94.1699 81.27C95.4284 81.3491 96.6852 81.0902 97.8099 80.52C99.4586 79.982 101.011 79.1854 102.41 78.16C105.07 76.16 107.62 73.45 107.49 69.76C107.379 68.0432 106.994 66.3552 106.35 64.76C110.537 63.1194 115.079 62.5956 119.53 63.24C131.36 64.63 133.69 72.01 133.24 75.1C133.027 76.2003 132.582 77.2426 131.936 78.1581C131.289 79.0735 130.456 79.8411 129.49 80.41C128.67 80.92 128.41 81.1 128.49 81.48C128.6 82.03 128.97 82.01 129.69 81.9C130.69 81.74 135.91 79.38 136.12 73.69C136.44 66.38 129.5 58.41 117.2 58.49L117.13 58.57ZM25.9199 89.31C22.0099 93.59 16.5099 95.22 14.1699 93.83C11.6399 92.37 12.6299 86.07 17.4399 81.53C20.2932 78.9527 23.3798 76.6461 26.6599 74.64L29.0799 73.18L29.3499 73.02L29.9599 72.65C30.8343 75.5319 30.9245 78.5947 30.2215 81.523C29.5184 84.4514 28.0474 87.1393 25.9599 89.31H25.9199ZM54.4899 69.89C53.1299 73.21 50.2599 81.74 48.4899 81.26C47.0099 80.86 46.0999 74.41 48.1999 68.03C49.264 64.9475 50.8356 62.0645 52.8499 59.5C55.0099 57.1 57.3399 56.31 57.9299 57.29C58.6599 58.57 55.3399 67.81 54.4899 69.89ZM78.0599 81.16C77.4799 81.45 76.9399 81.66 76.7099 81.5C76.4799 81.34 76.9399 81 76.9399 81C76.9399 81 79.9399 77.83 81.0599 76.37C81.7299 75.52 82.5299 74.54 83.3799 73.37V73.69C83.3799 77.52 79.7099 80.07 78.0599 81.11V81.16ZM96.2399 77C95.8099 76.68 95.8699 75.7 97.2999 72.61C98.2731 70.6273 99.6332 68.8593 101.3 67.41C101.572 68.1391 101.707 68.9119 101.7 69.69C101.71 74.48 98.3099 76.27 96.2399 77Z" fill="url(#paint0_linear_24_134)"/>
</g>
<defs>
<linearGradient id="paint0_linear_24_134" x1="0.00293801" y1="51.0115" x2="136.101" y2="51.0115" gradientUnits="userSpaceOnUse">
<stop stop-color="#FEFEFD"/>
<stop offset="1" stop-color="#F8CF95"/>
</linearGradient>
<clipPath id="clip0_24_134">
<rect width="136.06" height="101.99" fill="white"/>
</clipPath>
</defs>
</svg>
