<svg width="137" height="137" viewBox="0 0 137 137" fill="none" xmlns="http://www.w3.org/2000/svg">
<g clip-path="url(#clip0_24_154)">
<path d="M133.5 62L74.09 2.57003C73.2772 1.75517 72.3117 1.10867 71.2486 0.667562C70.1856 0.226449 69.046 -0.000610352 67.895 -0.000610352C66.7441 -0.000610352 65.6045 0.226449 64.5414 0.667562C63.4784 1.10867 62.5128 1.75517 61.7 2.57003L49.36 14.9L65 30.55C66.8461 29.9213 68.8316 29.8237 70.7304 30.2684C72.6292 30.7131 74.3648 31.6823 75.7396 33.0654C77.1144 34.4485 78.0731 36.1901 78.5063 38.0915C78.9396 39.9929 78.83 41.9778 78.19 43.82L93.27 58.9C95.5246 58.1324 97.9742 58.1604 100.211 58.9792C102.447 59.798 104.336 61.3583 105.562 63.4002C106.788 65.4421 107.277 67.8424 106.949 70.2013C106.62 72.5602 105.493 74.7354 103.756 76.3647C102.019 77.9939 99.776 78.9788 97.4008 79.1553C95.0257 79.3319 92.6617 78.6895 90.7026 77.335C88.7436 75.9806 87.3076 73.9959 86.6339 71.7115C85.9602 69.427 86.0894 66.9808 87 64.78L73 50.71V87.71C74.0222 88.223 74.9543 88.8984 75.76 89.71C77.3399 91.2931 78.3684 93.3425 78.6937 95.5553C79.0189 97.768 78.6235 100.027 77.566 101.997C76.5085 103.968 74.845 105.546 72.8214 106.499C70.7977 107.451 68.5213 107.727 66.3288 107.286C64.1362 106.845 62.1438 105.71 60.646 104.049C59.1482 102.388 58.2246 100.289 58.0117 98.0624C57.7988 95.8361 58.3079 93.6003 59.4638 91.6855C60.6196 89.7708 62.3608 88.2788 64.43 87.43V50.06C63.1461 49.5409 61.9796 48.769 61 47.79C59.5393 46.3255 58.5466 44.4601 58.1478 42.4304C57.749 40.4007 57.9621 38.2984 58.76 36.39L43.3 21L2.57003 61.69C1.75487 62.5037 1.10815 63.4701 0.666907 64.534C0.225658 65.5978 -0.00146484 66.7383 -0.00146484 67.89C-0.00146484 69.0418 0.225658 70.1822 0.666907 71.2461C1.10815 72.31 1.75487 73.2764 2.57003 74.09L62 133.49C62.8137 134.305 63.7801 134.952 64.844 135.393C65.9078 135.834 67.0483 136.062 68.2 136.062C69.3518 136.062 70.4922 135.834 71.5561 135.393C72.62 134.952 73.5864 134.305 74.4 133.49L133.5 74.37C135.141 72.7242 136.063 70.4945 136.063 68.17C136.063 65.8455 135.141 63.6159 133.5 61.97" fill="url(#paint0_linear_24_154)"/>
</g>
<defs>
<linearGradient id="paint0_linear_24_154" x1="-0.00145653" y1="68.0305" x2="136.033" y2="68.0305" gradientUnits="userSpaceOnUse">
<stop stop-color="#FEFEFD"/>
<stop offset="1" stop-color="#F8CF95"/>
</linearGradient>
<clipPath id="clip0_24_154">
<rect width="136.06" height="136.06" fill="white"/>
</clipPath>
</defs>
</svg>
