<svg width="137" height="71" viewBox="0 0 137 71" fill="none" xmlns="http://www.w3.org/2000/svg">
<g clip-path="url(#clip0_24_138)">
<path fill-rule="evenodd" clip-rule="evenodd" d="M136.06 35.41C136.06 54.9664 105.602 70.82 68.03 70.82C30.4581 70.82 0 54.9664 0 35.41C0 15.8536 30.4581 0 68.03 0C105.602 0 136.06 15.8536 136.06 35.41ZM26.5601 18.64L19.1001 56.38H28.0001L29.8201 46.6H38.2301C46.1501 47.06 55.0001 40.54 55.0001 29.36C55.0001 22.83 51.2601 19.1 43.8001 18.64H26.5601ZM34.0201 25.61L31.6901 39.61L37.2301 39.59C41.4201 39.12 45.1501 37.72 45.6101 29.8C45.6101 27.01 43.2901 25.61 40.0201 25.61H34.0201ZM60.7101 8.84998L53.2501 46.61L62.1001 46.63L66.2901 25.63H73.2901C76.5501 25.63 76.5501 27.03 76.0801 29.36L72.8201 46.6H82.1401L85.4001 27.49C86.3401 22.83 83.5401 19.1 76.0801 18.64H67.7001L69.5601 8.84998H60.7101ZM89.0001 18.64L81.5401 56.39L90.4001 56.38L92.2601 46.6H100.65C108.57 47.06 117.42 40.54 117.42 29.36C117.42 22.83 113.7 19.1 106.24 18.64H89.0001ZM96.4601 25.61L94.1301 39.61L99.7201 39.59C103.91 39.12 107.64 37.72 108.1 29.8C108.1 27.01 105.78 25.61 102.51 25.61H96.4601Z" fill="url(#paint0_linear_24_138)"/>
</g>
<defs>
<linearGradient id="paint0_linear_24_138" x1="8.31494e-06" y1="35.41" x2="136.03" y2="35.41" gradientUnits="userSpaceOnUse">
<stop stop-color="#FEFEFD"/>
<stop offset="1" stop-color="#F8CF95"/>
</linearGradient>
<clipPath id="clip0_24_138">
<rect width="136.06" height="70.83" fill="white"/>
</clipPath>
</defs>
</svg>
