<svg width="1920" height="805" viewBox="0 0 1920 805" fill="none" xmlns="http://www.w3.org/2000/svg">
<path fill-rule="evenodd" clip-rule="evenodd" d="M1919.99 682.893L1855.99 704.236C1791.99 725.58 1663.99 768.268 1535.99 789.612C1407.99 810.955 1279.99 810.955 1151.99 782.541C1078.39 765.895 1004.78 740.292 931.167 714.69C876.776 695.772 822.385 676.854 767.995 661.549C639.995 625.531 594.994 616.33 452.994 603.33C362.187 595.017 282.995 598.33 192.995 611.33C106.526 623.82 85.5952 631.233 9.59039 658.152L9.58271 658.154C6.48128 659.253 3.28815 660.384 -0.00488281 661.549L-0.00512695 559.001H1920C1920 594.501 1919.99 682.893 1919.99 682.893ZM1.52583e-05 559H1920V253V147.824C1916.17 149.226 1912.47 150.581 1908.9 151.891C1834.1 179.3 1812.42 187.242 1726.55 200.071C1636.57 213.512 1557.4 216.938 1466.62 208.342C1324.66 194.901 1279.67 185.387 1151.7 148.146C1097.32 132.322 1042.95 112.761 988.569 93.201C914.98 66.7293 841.39 40.2576 767.8 23.0455C639.833 -6.33319 511.867 -6.33319 383.9 15.7354C255.933 37.8038 127.967 81.9409 63.9834 104.009L3.05171e-05 126.078V253H1.52583e-05V559Z" fill="#FEFEFD"/>
</svg>
