<svg width="1920" height="805" viewBox="0 0 1920 805" fill="none" xmlns="http://www.w3.org/2000/svg">
<g filter="url(#filter0_ii_151_276)">
<path fill-rule="evenodd" clip-rule="evenodd" d="M1919.99 682.891L1855.99 704.235C1791.99 725.579 1663.99 768.266 1535.99 789.61C1407.99 810.954 1279.99 810.954 1151.99 782.54C1078.39 765.893 1004.78 740.291 931.167 714.688C876.776 695.77 822.385 676.852 767.995 661.547C639.995 625.53 594.994 616.329 452.994 603.329C362.187 595.015 282.995 598.329 192.995 611.329C106.526 623.819 85.5952 631.232 9.59057 658.15L9.58137 658.154C6.48036 659.252 3.28767 660.383 -0.00488281 661.547L-0.00512695 559H0V253H1.52588e-05V126.078L63.9833 104.009C127.967 81.9409 255.933 37.8038 383.9 15.7354C511.867 -6.33319 639.833 -6.33319 767.8 23.0455C841.39 40.2576 914.98 66.7293 988.569 93.201C1042.95 112.761 1097.32 132.322 1151.7 148.146C1279.67 185.387 1324.66 194.901 1466.62 208.342C1557.4 216.938 1636.57 213.512 1726.55 200.071C1812.42 187.242 1834.1 179.3 1908.9 151.891C1912.47 150.58 1916.17 149.226 1920 147.824V253V559H1920C1920 594.5 1919.99 682.891 1919.99 682.891Z" fill="#FEFEFD"/>
</g>
<defs>
<filter id="filter0_ii_151_276" x="-8.00513" y="-8" width="1936.01" height="820.829" filterUnits="userSpaceOnUse" color-interpolation-filters="sRGB">
<feFlood flood-opacity="0" result="BackgroundImageFix"/>
<feBlend mode="normal" in="SourceGraphic" in2="BackgroundImageFix" result="shape"/>
<feColorMatrix in="SourceAlpha" type="matrix" values="0 0 0 0 0 0 0 0 0 0 0 0 0 0 0 0 0 0 127 0" result="hardAlpha"/>
<feOffset dx="-8" dy="-8"/>
<feGaussianBlur stdDeviation="8"/>
<feComposite in2="hardAlpha" operator="arithmetic" k2="-1" k3="1"/>
<feColorMatrix type="matrix" values="0 0 0 0 1 0 0 0 0 1 0 0 0 0 1 0 0 0 1 0"/>
<feBlend mode="normal" in2="shape" result="effect1_innerShadow_151_276"/>
<feColorMatrix in="SourceAlpha" type="matrix" values="0 0 0 0 0 0 0 0 0 0 0 0 0 0 0 0 0 0 127 0" result="hardAlpha"/>
<feOffset dx="8" dy="8"/>
<feGaussianBlur stdDeviation="8"/>
<feComposite in2="hardAlpha" operator="arithmetic" k2="-1" k3="1"/>
<feColorMatrix type="matrix" values="0 0 0 0 0.717647 0 0 0 0 0.717647 0 0 0 0 0.713726 0 0 0 1 0"/>
<feBlend mode="normal" in2="effect1_innerShadow_151_276" result="effect2_innerShadow_151_276"/>
</filter>
</defs>
</svg>
