<svg width="3840" height="200" viewBox="0 0 3840 200" fill="none" xmlns="http://www.w3.org/2000/svg">
<path d="M357.5 136.501C217.097 155.356 177.5 198.001 0 198.001C0.00266266 198.001 0 0.000976562 0 0.000976562L1920 0.00195312V198.001C1881 192.501 1845.95 183.722 1791.5 157.501C1613.5 93.501 1484.11 192.411 1287 184.001C1130.03 177.304 1164.4 174.53 887.5 136.501C654.5 104.501 566 108.501 357.5 136.501Z" fill="#FEFEFD"/>
<path d="M2277.5 136.502C2137.1 155.357 2097.5 198.002 1920 198.002C1920 198.002 1920 0.00195312 1920 0.00195312L3840 0.00292969V198.002C3801 192.502 3765.95 183.723 3711.5 157.502C3533.5 93.502 3404.11 192.412 3207 184.002C3050.03 177.305 3084.4 174.531 2807.5 136.502C2574.5 104.502 2486 108.502 2277.5 136.502Z" fill="#FEFEFD"/>
<path d="M2371.5 165C2223.73 134.843 2107 213 1920 198V0L3840 0.00195312V198C3801 192.5 3765.95 183.721 3711.5 157.5C3527.04 68.6787 3411.65 189.86 3207 184C3027.44 178.858 3029 113.517 2842 130C2677.5 144.5 2592 210 2371.5 165Z" fill="#FEFEFD"/>
</svg>
