<svg width="79" height="67" viewBox="0 0 79 67" fill="none" xmlns="http://www.w3.org/2000/svg">
<path d="M10.568 8.784L10.696 8.848C12.872 4.88 17.544 2.896 21.832 2.128C24.392 1.68 27.016 1.616 29.64 1.36C31.944 1.168 34.312 0.783997 36.68 0.847996C36.808 0.783997 36.936 0.719997 37.064 0.719997C39.944 0.0159988 43.336 2 42.248 5.392C41.352 8.208 38.856 10.32 37.384 12.944C35.848 15.696 34.632 18.576 33.544 21.52C31.24 27.792 29.448 34.192 26.888 40.4C24.328 46.672 21.064 53.392 16.456 58.512C13 62.288 5.192 65.936 0.456 62.288C0.00800014 61.904 0.456 61.072 0.968 61.072C3.208 60.944 4.936 61.136 6.984 59.92C8.328 59.088 9.288 57.936 10.248 56.72C12.232 54.16 13.576 51.344 14.856 48.4C17.224 42.832 19.208 37.136 21 31.312C22.728 25.616 24.456 19.92 26.76 14.416C27.464 12.688 28.296 10.96 29.192 9.296C23.496 8.72 17.8 7.696 12.552 10.576C11.336 11.216 9.8 10.192 10.568 8.784ZM60.6455 51.216V51.28C57.7655 54.288 54.4375 56.912 50.8535 59.088C47.5255 61.136 43.1735 63.248 39.3975 61.136C35.6215 59.024 34.2775 54.224 33.8935 50.256C32.8695 40.528 36.8375 30.16 41.9575 22.032C46.8855 14.224 54.1815 5.328 63.3975 2.576C68.0695 1.168 73.5735 1.168 76.0695 6.096C78.3735 10.704 77.9895 16.784 76.3255 21.52C75.4935 23.824 73.3815 25.872 70.6935 25.36C68.3895 24.912 66.5975 22.352 67.4295 19.984C68.2615 17.616 68.7095 15.248 68.2615 12.752C67.9415 10.768 67.8135 10.768 65.8295 11.28C61.9255 12.24 58.7255 15.376 56.0375 18.192C50.4055 24.144 46.4375 31.248 43.8775 38.992C42.4695 43.28 41.0615 48.016 41.8295 52.56C42.0855 54.032 42.5975 55.824 44.0055 56.592C45.9255 57.616 48.9975 56.08 50.7895 55.312C55.5895 53.2 59.5575 49.68 62.6295 45.456C63.2695 43.408 63.9095 41.36 64.5495 39.312C64.4855 39.312 64.4215 39.312 64.3575 39.312C62.7575 39.568 61.0295 39.696 59.4295 39.376C57.1895 38.928 57.4455 36.304 58.8535 35.088C62.2455 32.272 69.6055 29.52 73.5095 32.528C75.2375 33.872 74.8535 35.92 73.6375 37.328C72.1015 42.256 70.3095 47.12 68.3255 51.92C66.5975 56.144 64.6775 62.096 61.3495 65.296C59.8775 66.704 57.1895 66.384 57.1255 64.016C57.0615 61.52 58.1495 59.152 58.9175 56.784C59.4935 54.928 60.0695 53.072 60.6455 51.216Z" fill="#020320"/>
</svg>
