<?xml version="1.0" standalone="no"?><svg xmlns="http://www.w3.org/2000/svg" viewBox="0 0 1440 320"><path fill="#0099ff" fill-opacity="1" d="M0,256L26.7,229.3C53.3,203,107,149,160,122.7C213.3,96,267,96,320,122.7C373.3,149,427,203,480,197.3C533.3,192,587,128,640,122.7C693.3,117,747,171,800,181.3C853.3,192,907,160,960,149.3C1013.3,139,1067,149,1120,149.3C1173.3,149,1227,139,1280,165.3C1333.3,192,1387,256,1413,288L1440,320L1440,320L1413.3,320C1386.7,320,1333,320,1280,320C1226.7,320,1173,320,1120,320C1066.7,320,1013,320,960,320C906.7,320,853,320,800,320C746.7,320,693,320,640,320C586.7,320,533,320,480,320C426.7,320,373,320,320,320C266.7,320,213,320,160,320C106.7,320,53,320,27,320L0,320Z"></path></svg>