<?xml version="1.0" standalone="no"?><svg xmlns="http://www.w3.org/2000/svg" viewBox="0 0 1440 320"><path fill="#0099ff" fill-opacity="1" d="M0,32L24,64C48,96,96,160,144,197.3C192,235,240,245,288,229.3C336,213,384,171,432,154.7C480,139,528,149,576,170.7C624,192,672,224,720,240C768,256,816,256,864,234.7C912,213,960,171,1008,165.3C1056,160,1104,192,1152,181.3C1200,171,1248,117,1296,90.7C1344,64,1392,64,1416,64L1440,64L1440,320L1416,320C1392,320,1344,320,1296,320C1248,320,1200,320,1152,320C1104,320,1056,320,1008,320C960,320,912,320,864,320C816,320,768,320,720,320C672,320,624,320,576,320C528,320,480,320,432,320C384,320,336,320,288,320C240,320,192,320,144,320C96,320,48,320,24,320L0,320Z"></path></svg>